<mxfile host="65bd71144e">
    <diagram id="v91z3nj9brKE0smqnRZt" name="Arquitetura em Camadas">
        <mxGraphModel dx="570" dy="427" grid="1" gridSize="10" guides="1" tooltips="1" connect="1" arrows="1" fold="1" page="1" pageScale="1" pageWidth="850" pageHeight="1100" math="0" shadow="0">
            <root>
                <mxCell id="0"/>
                <mxCell id="1" parent="0"/>
                <mxCell id="DLOCmwqKnDoB2S6r7IrJ-197" value="&lt;div style=&quot;&quot;&gt;&lt;span style=&quot;background-color: initial;&quot;&gt;&lt;b&gt;ecommerce-node-api (back-end)&lt;/b&gt;&lt;/span&gt;&lt;br&gt;&lt;/div&gt;" style="verticalAlign=top;align=left;spacingTop=8;spacingLeft=2;spacingRight=12;shape=cube;size=10;direction=south;fontStyle=4;html=1;strokeWidth=2;" vertex="1" parent="1">
                    <mxGeometry x="170" y="350" width="490" height="360" as="geometry"/>
                </mxCell>
                <mxCell id="DLOCmwqKnDoB2S6r7IrJ-198" value="&lt;b&gt;ecommerce-web-app (front-end)&lt;/b&gt;" style="verticalAlign=top;align=left;spacingTop=8;spacingLeft=2;spacingRight=12;shape=cube;size=10;direction=south;fontStyle=4;html=1;strokeWidth=2;" vertex="1" parent="1">
                    <mxGeometry x="240" y="210" width="390" height="120" as="geometry"/>
                </mxCell>
                <mxCell id="DLOCmwqKnDoB2S6r7IrJ-199" value="Database (Relacional)" style="shape=cylinder3;whiteSpace=wrap;html=1;boundedLbl=1;backgroundOutline=1;size=15;strokeWidth=2;fontStyle=1;align=center;" vertex="1" parent="1">
                    <mxGeometry x="350" y="720" width="149" height="120" as="geometry"/>
                </mxCell>
                <mxCell id="DLOCmwqKnDoB2S6r7IrJ-200" value="" style="rounded=1;whiteSpace=wrap;html=1;strokeWidth=2;align=center;labelBackgroundColor=default;fillColor=#f04333;fontColor=#ffffff;strokeColor=#ffffff;" vertex="1" parent="1">
                    <mxGeometry x="330" y="492" width="310" height="70" as="geometry"/>
                </mxCell>
                <mxCell id="DLOCmwqKnDoB2S6r7IrJ-201" value="Camada de Dominio" style="text;html=1;align=center;verticalAlign=middle;whiteSpace=wrap;rounded=0;strokeWidth=2;fontColor=#050505;fontStyle=1" vertex="1" parent="1">
                    <mxGeometry x="330" y="500" width="127.5" height="5" as="geometry"/>
                </mxCell>
                <mxCell id="DLOCmwqKnDoB2S6r7IrJ-209" style="edgeStyle=none;html=1;exitX=0.5;exitY=1;exitDx=0;exitDy=0;entryX=0.11;entryY=0.02;entryDx=0;entryDy=0;entryPerimeter=0;fontColor=#050505;" edge="1" parent="1" source="DLOCmwqKnDoB2S6r7IrJ-203" target="DLOCmwqKnDoB2S6r7IrJ-200">
                    <mxGeometry relative="1" as="geometry"/>
                </mxCell>
                <mxCell id="DLOCmwqKnDoB2S6r7IrJ-203" value="" style="rounded=1;whiteSpace=wrap;html=1;strokeWidth=2;align=center;labelBackgroundColor=default;fillColor=#FFFF00;fontColor=#000000;strokeColor=#efeee6;" vertex="1" parent="1">
                    <mxGeometry x="190" y="400" width="450" height="70" as="geometry"/>
                </mxCell>
                <mxCell id="DLOCmwqKnDoB2S6r7IrJ-204" value="Camada de Aplicação" style="text;html=1;strokeColor=none;fillColor=none;align=center;verticalAlign=middle;whiteSpace=wrap;rounded=0;labelBackgroundColor=none;strokeWidth=2;fontColor=#050505;fontStyle=1" vertex="1" parent="1">
                    <mxGeometry x="180" y="400" width="142.5" height="30" as="geometry"/>
                </mxCell>
                <mxCell id="DLOCmwqKnDoB2S6r7IrJ-210" style="edgeStyle=none;html=1;exitX=0.5;exitY=0;exitDx=0;exitDy=0;entryX=0.103;entryY=0.971;entryDx=0;entryDy=0;entryPerimeter=0;fontColor=#050505;" edge="1" parent="1" source="DLOCmwqKnDoB2S6r7IrJ-205" target="DLOCmwqKnDoB2S6r7IrJ-200">
                    <mxGeometry relative="1" as="geometry"/>
                </mxCell>
                <mxCell id="DLOCmwqKnDoB2S6r7IrJ-205" value="" style="rounded=1;whiteSpace=wrap;html=1;strokeWidth=2;align=center;labelBackgroundColor=default;fillColor=#a6f25a;strokeColor=#FFFFFF;fontColor=#ffffff;" vertex="1" parent="1">
                    <mxGeometry x="190" y="590" width="450" height="70" as="geometry"/>
                </mxCell>
                <mxCell id="DLOCmwqKnDoB2S6r7IrJ-213" style="edgeStyle=none;html=1;exitX=0.5;exitY=0;exitDx=0;exitDy=0;entryX=0.25;entryY=1;entryDx=0;entryDy=0;fontColor=#050505;" edge="1" parent="1" source="DLOCmwqKnDoB2S6r7IrJ-206" target="DLOCmwqKnDoB2S6r7IrJ-203">
                    <mxGeometry relative="1" as="geometry"/>
                </mxCell>
                <mxCell id="DLOCmwqKnDoB2S6r7IrJ-206" value="Camada de Infraestrutura" style="text;html=1;strokeColor=none;fillColor=none;align=center;verticalAlign=middle;whiteSpace=wrap;rounded=0;labelBackgroundColor=none;strokeWidth=2;fontColor=#050505;fontStyle=1" vertex="1" parent="1">
                    <mxGeometry x="180" y="590" width="180" height="30" as="geometry"/>
                </mxCell>
                <mxCell id="DLOCmwqKnDoB2S6r7IrJ-207" value="" style="rounded=1;whiteSpace=wrap;html=1;strokeWidth=2;align=center;labelBackgroundColor=default;fillColor=#FF0080;fontColor=#ffffff;strokeColor=#f0ebed;" vertex="1" parent="1">
                    <mxGeometry x="260" y="260" width="350" height="50" as="geometry"/>
                </mxCell>
                <mxCell id="DLOCmwqKnDoB2S6r7IrJ-208" value="Camada de Apresentação" style="text;html=1;strokeColor=none;fillColor=none;align=center;verticalAlign=middle;whiteSpace=wrap;rounded=0;labelBackgroundColor=none;strokeWidth=2;fontColor=#050505;fontStyle=1" vertex="1" parent="1">
                    <mxGeometry x="240" y="255" width="195" height="30" as="geometry"/>
                </mxCell>
                <mxCell id="DLOCmwqKnDoB2S6r7IrJ-214" value="Módulo/Subdominio" style="shape=umlFrame;whiteSpace=wrap;html=1;labelBackgroundColor=none;strokeColor=#0031a3;strokeWidth=2;fontColor=#ffffff;fillColor=#d80073;dashed=1;dashPattern=12 12;perimeterSpacing=0;swimlaneFillColor=none;direction=east;width=110;height=28;" vertex="1" parent="1">
                    <mxGeometry x="460" y="361.5" width="180" height="320" as="geometry"/>
                </mxCell>
                <mxCell id="DLOCmwqKnDoB2S6r7IrJ-215" value="&lt;h1 style=&quot;font-size: 17px;&quot;&gt;entity&lt;/h1&gt;" style="text;html=1;strokeColor=#0000FF;fillColor=none;spacing=5;spacingTop=-20;whiteSpace=wrap;overflow=hidden;rounded=0;dashed=1;labelBackgroundColor=none;sketch=0;strokeWidth=1;fontColor=#050505;fontStyle=0;fontFamily=Helvetica;align=center;verticalAlign=middle;fontSize=17;" vertex="1" parent="1">
                    <mxGeometry x="462" y="500" width="70" height="20" as="geometry"/>
                </mxCell>
                <mxCell id="DLOCmwqKnDoB2S6r7IrJ-218" value="&lt;h1 style=&quot;font-size: 17px;&quot;&gt;exception&lt;/h1&gt;" style="text;html=1;strokeColor=#0000FF;fillColor=none;spacing=5;spacingTop=-20;whiteSpace=wrap;overflow=hidden;rounded=0;dashed=1;labelBackgroundColor=none;sketch=0;strokeWidth=1;fontColor=#050505;fontStyle=0;fontFamily=Helvetica;align=center;verticalAlign=middle;fontSize=17;" vertex="1" parent="1">
                    <mxGeometry x="543" y="500" width="90" height="20" as="geometry"/>
                </mxCell>
                <mxCell id="DLOCmwqKnDoB2S6r7IrJ-219" value="&lt;h1 style=&quot;font-size: 17px;&quot;&gt;types&lt;/h1&gt;" style="text;html=1;strokeColor=#0000FF;fillColor=none;spacing=5;spacingTop=-20;whiteSpace=wrap;overflow=hidden;rounded=0;dashed=1;labelBackgroundColor=none;sketch=0;strokeWidth=1;fontColor=#050505;fontStyle=0;fontFamily=Helvetica;align=center;verticalAlign=middle;fontSize=17;" vertex="1" parent="1">
                    <mxGeometry x="462" y="530" width="70" height="20" as="geometry"/>
                </mxCell>
                <mxCell id="DLOCmwqKnDoB2S6r7IrJ-220" value="&lt;h1 style=&quot;font-size: 17px;&quot;&gt;spec&lt;/h1&gt;" style="text;html=1;strokeColor=#0000FF;fillColor=none;spacing=5;spacingTop=-20;whiteSpace=wrap;overflow=hidden;rounded=0;dashed=1;labelBackgroundColor=none;sketch=0;strokeWidth=1;fontColor=#050505;fontStyle=0;fontFamily=Helvetica;align=center;verticalAlign=middle;fontSize=17;" vertex="1" parent="1">
                    <mxGeometry x="540" y="530" width="90" height="20" as="geometry"/>
                </mxCell>
                <mxCell id="DLOCmwqKnDoB2S6r7IrJ-221" value="&lt;h1 style=&quot;font-size: 17px;&quot;&gt;text&lt;/h1&gt;" style="text;html=1;strokeColor=#0000FF;fillColor=none;spacing=5;spacingTop=-20;whiteSpace=wrap;overflow=hidden;rounded=0;dashed=1;labelBackgroundColor=none;sketch=0;strokeWidth=1;fontColor=#050505;fontStyle=0;fontFamily=Helvetica;align=center;verticalAlign=middle;fontSize=17;" vertex="1" parent="1">
                    <mxGeometry x="470" y="600" width="90" height="20" as="geometry"/>
                </mxCell>
            </root>
        </mxGraphModel>
    </diagram>
</mxfile>